<svg id="Layer_1" height="512" viewBox="0 0 512 512" width="512" xmlns="http://www.w3.org/2000/svg" xmlns:xlink="http://www.w3.org/1999/xlink" data-name="Layer 1"><linearGradient id="GradientFill_1" gradientUnits="userSpaceOnUse" x1="53.815" x2="498.744" y1="456.71" y2="7.426"><stop offset="0" stop-color="#617fc0"/><stop offset="1" stop-color="#20c4f4"/></linearGradient><path d="m126.149 330.108c-27.578 0-48.14 19.239-57.9 54.168l-16.458 58.954a15.981 15.981 0 0 0 15.409 20.293 16.23 16.23 0 0 0 4.3-.573l58.948-16.468c34.94-9.757 54.183-30.324 54.183-57.9a58.541 58.541 0 0 0 -58.486-58.473zm242.91-216.648a18.926 18.926 0 1 1 0 26.774 18.845 18.845 0 0 1 0-26.774zm13.378 64.291a50.9 50.9 0 1 0 -36.007-14.888 50.8 50.8 0 0 0 36.007 14.888zm94.177-139.622c-133.462-25.859-244.262 100.021-287.847 193.629l94.21 94.2a414.281 414.281 0 0 0 81.481-50.892 16.007 16.007 0 0 1 4.306-3.459c68.455-55.973 126.136-139.045 107.85-233.478zm-280.249 280.229-43.572-43.558 16.881-16.88 87.142 87.149-16.88 16.88-43.571-43.586zm-180.346-70.407a15.99 15.99 0 0 1 -13.595-24.438c35.956-57.878 95.742-96.471 164.027-105.839a238.729 238.729 0 0 1 59.148-.733c.254.023.5.069.751.114a414.121 414.121 0 0 1 50.31-49.289c68.863-56.412 143.972-76.682 217.207-58.611a16 16 0 0 1 11.7 11.7c18.064 73.247-2.2 148.349-58.611 217.221a416.564 416.564 0 0 1 -53.82 54.168 239.339 239.339 0 0 1 -1.521 50.594c-9.383 68.277-47.965 128.056-105.85 164.015a16 16 0 0 1 -23.578-18.753 264.957 264.957 0 0 0 12.3-115.459l-12.943 12.941a30.535 30.535 0 0 1 -43.206 0l-44.595-44.594-44.6-44.594a30.577 30.577 0 0 1 0-43.2l17.122-17.132a265.569 265.569 0 0 0 -125.073 11.038 16.17 16.17 0 0 1 -5.173.851z" fill="url(#GradientFill_1)" fill-rule="evenodd"/></svg>